<?xml version="1.0" encoding="UTF-8" standalone="no"?>
<svg
   xmlns:dc="http://purl.org/dc/elements/1.1/"
   xmlns:cc="http://creativecommons.org/ns#"
   xmlns:rdf="http://www.w3.org/1999/02/22-rdf-syntax-ns#"
   xmlns:svg="http://www.w3.org/2000/svg"
   xmlns="http://www.w3.org/2000/svg"
   viewBox="0 0 246.26666 63.346668"
   height="63.346668"
   width="246.26666"
   xml:space="preserve"
   id="svg2"
   version="1.1"><metadata
     id="metadata8"><rdf:RDF><cc:Work
         rdf:about=""><dc:format>image/svg+xml</dc:format><dc:type
           rdf:resource="http://purl.org/dc/dcmitype/StillImage" /></cc:Work></rdf:RDF></metadata><defs
     id="defs6" /><g
     transform="matrix(1.3333333,0,0,-1.3333333,0,63.346667)"
     id="g10"><g
       transform="scale(0.1)"
       id="g12"><path
         id="path14"
         style="fill:#100f0d;fill-opacity:1;fill-rule:nonzero;stroke:none"
         d="m 1434.91,196.699 c 3.15,15.199 4.77,30.848 4.77,46.711 0,128.641 -99.2,231.684 -237.44,231.684 -138.24,0 -238.72,-104.321 -238.72,-231.684 0,-128.637 99.2,-231.6795 237.44,-231.6795 9,0 17.86,0.4609 26.55,1.3515 -9.92,29.2071 -20.45,60.2032 -30.44,89.621 -76.62,2.711 -130.51,65.586 -130.51,140.707 v 1.281 c 0,76.801 55.04,139.52 134.4,139.52 78.87,0 134.98,-63.211 135.67,-139.375 32.76,-16.047 65.52,-32.09 98.28,-48.137" /><path
         id="path16"
         style="fill:#100f0d;fill-opacity:1;fill-rule:nonzero;stroke:none"
         d="m 812.801,19.4102 h 98.5586 v 448 H 812.801 Z" /><path
         id="path18"
         style="fill:#100f0d;fill-opacity:1;fill-rule:nonzero;stroke:none"
         d="M 452.16,19.4102 H 774.078 V 109.012 H 550.719 V 467.41 H 452.16 V 19.4102" /><path
         id="path20"
         style="fill:#100f0d;fill-opacity:1;fill-rule:nonzero;stroke:none"
         d="m 229.762,11.7305 c 86.398,0 137.597,30.7226 183.679,80 l -62.722,63.3635 c -35.199,-32 -66.559,-52.481 -117.758,-52.481 -76.801,0 -129.922,64 -129.922,140.797 v 1.281 c 0,76.801 54.402,139.52 129.922,139.52 44.801,0 80,-19.199 114.559,-50.559 l 62.718,72.321 c -41.597,40.961 -92.16,69.121 -176.636,69.121 C 96,475.094 0,370.773 0,243.41 v -1.277 C 0,113.492 97.9219,11.7305 229.762,11.7305 v 0" /><path
         id="path22"
         style="fill:#100f0d;fill-opacity:1;fill-rule:nonzero;stroke:none"
         d="M 1279.63,2.04688 1323.97,92.1055 1418.48,0 c 0,0 31.97,27.2188 26.01,33.8867 -28.11,31.4649 -94.51,92.1053 -94.51,92.1053 l 78.6,27.063 -241.04,116.437 92.09,-267.44512" /><path
         id="path24"
         style="fill:#100f0d;fill-opacity:1;fill-rule:nonzero;stroke:none"
         d="m 1473.92,19.4102 h 373.12 v 86.4028 h -246.4 l 246.4,286.718 V 467.41 H 1481.6 v -86.398 h 238.72 L 1473.92,94.293 V 19.4102" /></g></g></svg>