<?xml version="1.0" standalone="no"?>
<!DOCTYPE svg PUBLIC "-//W3C//DTD SVG 20010904//EN"
 "http://www.w3.org/TR/2001/REC-SVG-20010904/DTD/svg10.dtd">
<svg version="1.0" xmlns="http://www.w3.org/2000/svg"
 width="158.000000pt" height="95.000000pt" viewBox="0 0 158.000000 95.000000"
 preserveAspectRatio="xMidYMid meet">
<g transform="translate(0.000000,95.000000) scale(0.100000,-0.100000)"
fill="#14477A" stroke="none">
<path d="M617 766 c-66 -18 -126 -62 -162 -120 -23 -39 -30 -63 -33 -118 -9
-149 83 -265 227 -284 46 -6 51 -5 51 13 0 16 -11 22 -54 32 -74 16 -127 57
-160 122 -45 91 -30 176 44 249 53 54 99 70 198 70 73 0 93 10 72 35 -16 19
-115 19 -183 1z"/>
<path d="M915 773 c-32 -8 -84 -52 -101 -85 -11 -22 -15 -48 -12 -86 4 -49 10
-60 45 -93 41 -38 97 -57 129 -45 19 7 14 41 -6 42 -8 1 -25 2 -37 2 -12 1
-35 14 -52 28 -36 30 -49 81 -31 125 20 48 53 63 149 69 78 5 86 7 86 25 0 18
-7 20 -75 22 -41 0 -84 -1 -95 -4z"/>
<path d="M1129 693 c-127 -273 -159 -345 -153 -354 17 -28 43 9 118 170 45 96
86 174 91 172 6 -1 65 -110 133 -241 l124 -240 -680 0 c-573 0 -681 -2 -691
-14 -7 -8 -8 -17 -3 -20 12 -7 1423 -8 1430 -1 4 3 -56 128 -132 278 -154 302
-173 337 -187 337 -5 0 -28 -39 -50 -87z"/>
<path d="M650 496 c-4 -4 -6 -15 -3 -22 4 -10 24 -14 68 -14 38 0 67 -5 73
-13 6 -7 12 -35 14 -62 3 -42 6 -50 23 -50 16 0 21 8 23 35 5 48 -14 107 -38
120 -25 14 -148 18 -160 6z"/>
<path d="M1112 484 c2 -14 13 -20 40 -22 81 -7 119 -99 62 -153 -25 -24 -29
-24 -240 -27 -196 -3 -215 -5 -212 -20 3 -15 24 -17 198 -20 107 -2 209 0 227
3 70 13 117 97 94 168 -18 55 -53 80 -117 85 -51 4 -56 3 -52 -14z"/>
</g>
</svg>
