<?xml version="1.0" encoding="utf-8"?>
<!-- Generator: Adobe Illustrator 18.1.0, SVG Export Plug-In . SVG Version: 6.00 Build 0)  -->
<!DOCTYPE svg PUBLIC "-//W3C//DTD SVG 1.1//EN" "http://www.w3.org/Graphics/SVG/1.1/DTD/svg11.dtd">
<svg version="1.1" id="Layer_1" xmlns="http://www.w3.org/2000/svg" xmlns:xlink="http://www.w3.org/1999/xlink" x="0px" y="0px"
	 viewBox="0 0 86 37.4" enable-background="new 0 0 86 37.4" xml:space="preserve">
<g>
	<g>
		<g>
			<g>
				<path fill="#748184" d="M17.5,20.6c0-0.6-0.2-0.8-0.8-0.8h-1.4c-0.6,0-0.8,0.2-0.8,0.8v7.1c0,0.4-0.2,0.6-0.6,0.6h-1.5
					c-0.4,0-0.6-0.2-0.6-0.6V9.9c0-0.4,0.2-0.6,0.6-0.6h1.5c0.4,0,0.6,0.2,0.6,0.6c0,0,0,6.1,0,6.3c0,0.6,0.2,0.8,0.8,0.8
					c0.2,0,0.9,0,1.4,0c0.6,0,0.8-0.2,0.8-0.8V9.9c0-0.4,0.2-0.6,0.6-0.6h1.5c0.4,0,0.6,0.2,0.6,0.6v17.8c0,0.4-0.2,0.6-0.6,0.6
					h-1.5c-0.4,0-0.6-0.2-0.6-0.6V20.6z"/>
			</g>
			<g>
				<path fill="#748184" d="M71.6,20.6c0-0.6-0.2-0.8-0.8-0.8h-1.4c-0.6,0-0.8,0.2-0.8,0.8v7.1c0,0.4-0.2,0.6-0.6,0.6h-1.5
					c-0.4,0-0.6-0.2-0.6-0.6V9.9c0-0.4,0.2-0.6,0.6-0.6h1.5c0.4,0,0.6,0.2,0.6,0.6c0,0,0,6.1,0,6.3c0,0.6,0.2,0.8,0.8,0.8
					c0.2,0,0.9,0,1.4,0c0.6,0,0.8-0.2,0.8-0.8V9.9c0-0.4,0.2-0.6,0.6-0.6h1.5c0.4,0,0.6,0.2,0.6,0.6v17.8c0,0.4-0.2,0.6-0.6,0.6
					h-1.5c-0.4,0-0.6-0.2-0.6-0.6V20.6z"/>
			</g>
		</g>
		<g>
			<path fill="#748184" d="M26.4,37.4c0,0-0.1,0-0.1,0H1.4C0.6,37.4,0,36.8,0,36V1.4C0,0.6,0.6,0,1.4,0h24.9c0.4,0,0.8,0.1,1.1,0.4
				l16.6,17.3c0.5,0.5,0.5,1.4,0,2L27.4,37C27.2,37.2,26.8,37.4,26.4,37.4z M2.8,34.6h23l15.3-15.9L25.8,2.8h-23V34.6z"/>
			<path fill="#748184" d="M59.5,0c0,0,0.1,0,0.1,0h24.9C85.3,0,86,0.6,86,1.4V36c0,0.8-0.6,1.4-1.4,1.4H59.6
				c-0.4,0-0.8-0.1-1.1-0.4L41.9,19.7c-0.5-0.5-0.5-1.4,0-2L58.5,0.4C58.8,0.2,59.2,0,59.5,0z M83.1,2.8h-23L44.9,18.7l15.2,15.9h23
				V2.8z"/>
		</g>
	</g>
</g>
</svg>
